<?xml version="1.0" encoding="iso-8859-1"?>
<!-- Generator: Adobe Illustrator 18.0.0, SVG Export Plug-In . SVG Version: 6.00 Build 0)  -->
<!DOCTYPE svg PUBLIC "-//W3C//DTD SVG 1.1//EN" "http://www.w3.org/Graphics/SVG/1.1/DTD/svg11.dtd">
<svg version="1.1" id="Capa_1" xmlns="http://www.w3.org/2000/svg" xmlns:xlink="http://www.w3.org/1999/xlink" x="0px" y="0px"
	 viewBox="0 0 59 59" style="enable-background:new 0 0 59 59;" xml:space="preserve">
<path d="M15.426,59h-6c-0.553,0-1-0.447-1-1V1c0-0.405,0.244-0.77,0.618-0.924c0.371-0.156,0.804-0.068,1.09,0.218L50.282,40.6
	c0.39,0.391,0.389,1.023-0.001,1.413l-4.243,4.242c-0.188,0.188-0.442,0.293-0.707,0.293c-0.001,0-0.002,0-0.003,0
	c-0.266-0.001-0.521-0.107-0.708-0.297L16.426,17.746V58C16.426,58.553,15.979,59,15.426,59z"/>
<g>
</g>
<g>
</g>
<g>
</g>
<g>
</g>
<g>
</g>
<g>
</g>
<g>
</g>
<g>
</g>
<g>
</g>
<g>
</g>
<g>
</g>
<g>
</g>
<g>
</g>
<g>
</g>
<g>
</g>
</svg>
