<?xml version="1.0" encoding="iso-8859-1"?>
<!-- Generator: Adobe Illustrator 18.0.0, SVG Export Plug-In . SVG Version: 6.00 Build 0)  -->
<!DOCTYPE svg PUBLIC "-//W3C//DTD SVG 1.1//EN" "http://www.w3.org/Graphics/SVG/1.1/DTD/svg11.dtd">
<svg version="1.1" id="Capa_1" xmlns="http://www.w3.org/2000/svg" xmlns:xlink="http://www.w3.org/1999/xlink" x="0px" y="0px"
	 viewBox="0 0 60 60" style="enable-background:new 0 0 60 60;" xml:space="preserve">
<g>
	<path d="M26,0c-0.552,0-1,0.447-1,1v11H8.458C6.551,12,5,13.551,5,15.458v29.083C5,46.448,6.551,48,8.458,48H25v11
		c0,0.553,0.448,1,1,1s1-0.447,1-1V47V13V1C27,0.447,26.552,0,26,0z M8.458,46C7.654,46,7,45.346,7,44.541V44v-6v-6v-6v-6v-4.542
		C7,14.654,7.654,14,8.458,14H25v32H8.458z"/>
	<path d="M54,0c-0.552,0-1,0.447-1,1v6H36.458C34.551,7,33,8.551,33,10.458v39.083C33,51.448,34.551,53,36.458,53H53v6
		c0,0.553,0.448,1,1,1s1-0.447,1-1v-7V8V1C55,0.447,54.552,0,54,0z"/>
	<circle cx="8" cy="44" r="1"/>
	<circle cx="11" cy="41" r="1"/>
	<circle cx="11" cy="35" r="1"/>
	<circle cx="11" cy="23" r="1"/>
	<circle cx="8" cy="38" r="1"/>
	<circle cx="8" cy="32" r="1"/>
	<circle cx="11" cy="29" r="1"/>
	<circle cx="8" cy="26" r="1"/>
	<circle cx="8" cy="20" r="1"/>
	<circle cx="11" cy="17" r="1"/>
	<circle cx="14" cy="44" r="1"/>
	<circle cx="17" cy="41" r="1"/>
	<circle cx="17" cy="35" r="1"/>
	<circle cx="14" cy="38" r="1"/>
	<circle cx="20" cy="44" r="1"/>
	<circle cx="23" cy="41" r="1"/>
	<circle cx="23" cy="35" r="1"/>
	<circle cx="23" cy="23" r="1"/>
	<circle cx="20" cy="38" r="1"/>
	<circle cx="14" cy="32" r="1"/>
	<circle cx="17" cy="29" r="1"/>
	<circle cx="17" cy="23" r="1"/>
	<circle cx="14" cy="26" r="1"/>
	<circle cx="20" cy="32" r="1"/>
	<circle cx="23" cy="29" r="1"/>
	<circle cx="20" cy="26" r="1"/>
	<circle cx="14" cy="20" r="1"/>
	<circle cx="17" cy="17" r="1"/>
	<circle cx="20" cy="20" r="1"/>
	<circle cx="23" cy="17" r="1"/>
</g>
<g>
</g>
<g>
</g>
<g>
</g>
<g>
</g>
<g>
</g>
<g>
</g>
<g>
</g>
<g>
</g>
<g>
</g>
<g>
</g>
<g>
</g>
<g>
</g>
<g>
</g>
<g>
</g>
<g>
</g>
</svg>
