<?xml version="1.0" encoding="iso-8859-1"?>
<!-- Generator: Adobe Illustrator 18.0.0, SVG Export Plug-In . SVG Version: 6.00 Build 0)  -->
<!DOCTYPE svg PUBLIC "-//W3C//DTD SVG 1.1//EN" "http://www.w3.org/Graphics/SVG/1.1/DTD/svg11.dtd">
<svg version="1.1" id="Capa_1" xmlns="http://www.w3.org/2000/svg" xmlns:xlink="http://www.w3.org/1999/xlink" x="0px" y="0px"
	 viewBox="0 0 60 60" style="enable-background:new 0 0 60 60;" xml:space="preserve">
<g>
	<path d="M1,27h12h34h12c0.553,0,1-0.448,1-1s-0.447-1-1-1H48V8.458C48,6.551,46.449,5,44.542,5H15.459C13.552,5,12,6.551,12,8.458
		V25H1c-0.553,0-1,0.448-1,1S0.447,27,1,27z M14,8.458C14,7.654,14.654,7,15.459,7H16h6h6h6h6h4.542C45.346,7,46,7.654,46,8.458V25
		H14V8.458z"/>
	<path d="M59,53h-6V36.458C53,34.551,51.449,33,49.542,33H10.459C8.552,33,7,34.551,7,36.458V53H1c-0.553,0-1,0.448-1,1s0.447,1,1,1
		h7h44h7c0.553,0,1-0.448,1-1S59.553,53,59,53z"/>
	<circle cx="16" cy="8" r="1"/>
	<circle cx="19" cy="11" r="1"/>
	<circle cx="25" cy="11" r="1"/>
	<circle cx="37" cy="11" r="1"/>
	<circle cx="22" cy="8" r="1"/>
	<circle cx="28" cy="8" r="1"/>
	<circle cx="31" cy="11" r="1"/>
	<circle cx="34" cy="8" r="1"/>
	<circle cx="40" cy="8" r="1"/>
	<circle cx="43" cy="11" r="1"/>
	<circle cx="16" cy="14" r="1"/>
	<circle cx="19" cy="17" r="1"/>
	<circle cx="25" cy="17" r="1"/>
	<circle cx="22" cy="14" r="1"/>
	<circle cx="16" cy="20" r="1"/>
	<circle cx="19" cy="23" r="1"/>
	<circle cx="25" cy="23" r="1"/>
	<circle cx="37" cy="23" r="1"/>
	<circle cx="22" cy="20" r="1"/>
	<circle cx="28" cy="14" r="1"/>
	<circle cx="31" cy="17" r="1"/>
	<circle cx="37" cy="17" r="1"/>
	<circle cx="34" cy="14" r="1"/>
	<circle cx="28" cy="20" r="1"/>
	<circle cx="31" cy="23" r="1"/>
	<circle cx="34" cy="20" r="1"/>
	<circle cx="40" cy="14" r="1"/>
	<circle cx="43" cy="17" r="1"/>
	<circle cx="40" cy="20" r="1"/>
	<circle cx="43" cy="23" r="1"/>
</g>
<g>
</g>
<g>
</g>
<g>
</g>
<g>
</g>
<g>
</g>
<g>
</g>
<g>
</g>
<g>
</g>
<g>
</g>
<g>
</g>
<g>
</g>
<g>
</g>
<g>
</g>
<g>
</g>
<g>
</g>
</svg>
