<?xml version="1.0" encoding="iso-8859-1"?>
<!-- Generator: Adobe Illustrator 18.0.0, SVG Export Plug-In . SVG Version: 6.00 Build 0)  -->
<!DOCTYPE svg PUBLIC "-//W3C//DTD SVG 1.1//EN" "http://www.w3.org/Graphics/SVG/1.1/DTD/svg11.dtd">
<svg version="1.1" id="Capa_1" xmlns="http://www.w3.org/2000/svg" xmlns:xlink="http://www.w3.org/1999/xlink" x="0px" y="0px"
	 viewBox="0 0 60 60" style="enable-background:new 0 0 60 60;" xml:space="preserve">
<g>
	<path d="M51.541,12H35V1c0-0.552-0.447-1-1-1s-1,0.448-1,1v12v34v12c0,0.552,0.447,1,1,1s1-0.448,1-1V48h16.541
		C53.448,48,55,46.449,55,44.542V15.458C55,13.551,53.448,12,51.541,12z M53,44.542C53,45.346,52.346,46,51.541,46H35v-2v-6v-6v-6
		v-6v-6h16.541C52.346,14,53,14.654,53,15.458V44.542z"/>
	<path d="M23.542,7H7V1c0-0.552-0.447-1-1-1S5,0.448,5,1v7v44v7c0,0.552,0.447,1,1,1s1-0.448,1-1v-6h16.541
		C25.448,53,27,51.449,27,49.542V10.458C27,8.551,25.449,7,23.542,7z"/>
	<circle cx="36" cy="44" r="1"/>
	<circle cx="39" cy="41" r="1"/>
	<circle cx="39" cy="35" r="1"/>
	<circle cx="39" cy="23" r="1"/>
	<circle cx="36" cy="38" r="1"/>
	<circle cx="36" cy="32" r="1"/>
	<circle cx="39" cy="29" r="1"/>
	<circle cx="36" cy="26" r="1"/>
	<circle cx="36" cy="20" r="1"/>
	<circle cx="39" cy="17" r="1"/>
	<circle cx="42" cy="44" r="1"/>
	<circle cx="45" cy="41" r="1"/>
	<circle cx="45" cy="35" r="1"/>
	<circle cx="42" cy="38" r="1"/>
	<circle cx="48" cy="44" r="1"/>
	<circle cx="51" cy="41" r="1"/>
	<circle cx="51" cy="35" r="1"/>
	<circle cx="51" cy="23" r="1"/>
	<circle cx="48" cy="38" r="1"/>
	<circle cx="42" cy="32" r="1"/>
	<circle cx="45" cy="29" r="1"/>
	<circle cx="45" cy="23" r="1"/>
	<circle cx="42" cy="26" r="1"/>
	<circle cx="48" cy="32" r="1"/>
	<circle cx="51" cy="29" r="1"/>
	<circle cx="48" cy="26" r="1"/>
	<circle cx="42" cy="20" r="1"/>
	<circle cx="45" cy="17" r="1"/>
	<circle cx="48" cy="20" r="1"/>
	<circle cx="51" cy="17" r="1"/>
</g>
<g>
</g>
<g>
</g>
<g>
</g>
<g>
</g>
<g>
</g>
<g>
</g>
<g>
</g>
<g>
</g>
<g>
</g>
<g>
</g>
<g>
</g>
<g>
</g>
<g>
</g>
<g>
</g>
<g>
</g>
</svg>
