<?xml version="1.0" encoding="iso-8859-1"?>
<!-- Generator: Adobe Illustrator 18.0.0, SVG Export Plug-In . SVG Version: 6.00 Build 0)  -->
<!DOCTYPE svg PUBLIC "-//W3C//DTD SVG 1.1//EN" "http://www.w3.org/Graphics/SVG/1.1/DTD/svg11.dtd">
<svg version="1.1" id="Capa_1" xmlns="http://www.w3.org/2000/svg" xmlns:xlink="http://www.w3.org/1999/xlink" x="0px" y="0px"
	 viewBox="0 0 60 60" style="enable-background:new 0 0 60 60;" xml:space="preserve">
<g>
	<path d="M51.542,9.5H36.458C34.551,9.5,33,11.051,33,12.958v29.083c0,1.907,1.551,3.458,3.458,3.458h15.083
		c1.907,0,3.458-1.551,3.458-3.458V12.958C55,11.051,53.449,9.5,51.542,9.5z M53,13.5v6v6v6v6v4.542
		c0,0.804-0.654,1.458-1.458,1.458H36.458C35.654,43.5,35,42.846,35,42.042V12.958c0-0.804,0.654-1.458,1.458-1.458h15.083
		c0.804,0,1.458,0.654,1.458,1.458V13.5z"/>
	<path d="M23.542,9.5H8.458C6.551,9.5,5,11.051,5,12.958v39.083C5,53.949,6.551,55.5,8.458,55.5h15.083
		c1.907,0,3.458-1.551,3.458-3.458V12.958C27,11.051,25.449,9.5,23.542,9.5z"/>
	<path d="M59,4.5H1c-0.552,0-1,0.448-1,1s0.448,1,1,1h58c0.552,0,1-0.448,1-1S59.552,4.5,59,4.5z"/>
	<circle cx="52" cy="13.5" r="1"/>
	<circle cx="49" cy="16.5" r="1"/>
	<circle cx="49" cy="22.5" r="1"/>
	<circle cx="49" cy="34.5" r="1"/>
	<circle cx="52" cy="19.5" r="1"/>
	<circle cx="52" cy="25.5" r="1"/>
	<circle cx="49" cy="28.5" r="1"/>
	<circle cx="52" cy="31.5" r="1"/>
	<circle cx="52" cy="37.5" r="1"/>
	<circle cx="49" cy="40.5" r="1"/>
	<circle cx="46" cy="13.5" r="1"/>
	<circle cx="43" cy="16.5" r="1"/>
	<circle cx="43" cy="22.5" r="1"/>
	<circle cx="46" cy="19.5" r="1"/>
	<circle cx="40" cy="13.5" r="1"/>
	<circle cx="37" cy="16.5" r="1"/>
	<circle cx="37" cy="22.5" r="1"/>
	<circle cx="37" cy="34.5" r="1"/>
	<circle cx="40" cy="19.5" r="1"/>
	<circle cx="46" cy="25.5" r="1"/>
	<circle cx="43" cy="28.5" r="1"/>
	<circle cx="43" cy="34.5" r="1"/>
	<circle cx="46" cy="31.5" r="1"/>
	<circle cx="40" cy="25.5" r="1"/>
	<circle cx="37" cy="28.5" r="1"/>
	<circle cx="40" cy="31.5" r="1"/>
	<circle cx="46" cy="37.5" r="1"/>
	<circle cx="43" cy="40.5" r="1"/>
	<circle cx="40" cy="37.5" r="1"/>
	<circle cx="37" cy="40.5" r="1"/>
</g>
<g>
</g>
<g>
</g>
<g>
</g>
<g>
</g>
<g>
</g>
<g>
</g>
<g>
</g>
<g>
</g>
<g>
</g>
<g>
</g>
<g>
</g>
<g>
</g>
<g>
</g>
<g>
</g>
<g>
</g>
</svg>
