<?xml version="1.0" encoding="iso-8859-1"?>
<!-- Generator: Adobe Illustrator 18.0.0, SVG Export Plug-In . SVG Version: 6.00 Build 0)  -->
<!DOCTYPE svg PUBLIC "-//W3C//DTD SVG 1.1//EN" "http://www.w3.org/Graphics/SVG/1.1/DTD/svg11.dtd">
<svg version="1.1" id="Capa_1" xmlns="http://www.w3.org/2000/svg" xmlns:xlink="http://www.w3.org/1999/xlink" x="0px" y="0px"
	 viewBox="0 0 60 60" style="enable-background:new 0 0 60 60;" xml:space="preserve">
<g>
	<path d="M36.458,50.5L36.458,50.5h15.083h0.001c1.669,0,3.065-1.188,3.388-2.762C54.976,47.513,55,47.28,55,47.042V17.958
		c0-1.907-1.551-3.458-3.458-3.458H36.459C34.552,14.5,33,16.051,33,17.958v29.083c0,0.238,0.024,0.471,0.07,0.696
		C33.393,49.312,34.789,50.5,36.458,50.5z M35,17.958c0-0.804,0.654-1.458,1.459-1.458h15.083c0.804,0,1.458,0.654,1.458,1.458V18.5
		v6v6v6v6v4.542c0,0.201-0.041,0.393-0.115,0.567c-0.222,0.523-0.741,0.891-1.344,0.891H36.459c-0.604,0-1.122-0.368-1.344-0.891
		C35.041,47.434,35,47.243,35,47.042V17.958z"/>
	<path d="M8.458,50.5h15.083c1.907,0,3.459-1.551,3.459-3.458V7.958C27,6.051,25.449,4.5,23.542,4.5H8.459
		C6.552,4.5,5,6.051,5,7.958v39.083C5,48.949,6.551,50.5,8.458,50.5z"/>
	<path d="M59,53.5H1c-0.553,0-1,0.448-1,1s0.447,1,1,1h58c0.553,0,1-0.448,1-1S59.553,53.5,59,53.5z"/>
	<circle cx="52" cy="18.5" r="1"/>
	<circle cx="49" cy="21.5" r="1"/>
	<circle cx="49" cy="27.5" r="1"/>
	<circle cx="49" cy="39.5" r="1"/>
	<circle cx="52" cy="24.5" r="1"/>
	<circle cx="52" cy="30.5" r="1"/>
	<circle cx="49" cy="33.5" r="1"/>
	<circle cx="52" cy="36.5" r="1"/>
	<circle cx="52" cy="42.5" r="1"/>
	<circle cx="49" cy="45.5" r="1"/>
	<circle cx="46" cy="18.5" r="1"/>
	<circle cx="43" cy="21.5" r="1"/>
	<circle cx="43" cy="27.5" r="1"/>
	<circle cx="46" cy="24.5" r="1"/>
	<circle cx="40" cy="18.5" r="1"/>
	<circle cx="37" cy="21.5" r="1"/>
	<circle cx="37" cy="27.5" r="1"/>
	<circle cx="37" cy="39.5" r="1"/>
	<circle cx="40" cy="24.5" r="1"/>
	<circle cx="46" cy="30.5" r="1"/>
	<circle cx="43" cy="33.5" r="1"/>
	<circle cx="43" cy="39.5" r="1"/>
	<circle cx="46" cy="36.5" r="1"/>
	<circle cx="40" cy="30.5" r="1"/>
	<circle cx="37" cy="33.5" r="1"/>
	<circle cx="40" cy="36.5" r="1"/>
	<circle cx="46" cy="42.5" r="1"/>
	<circle cx="43" cy="45.5" r="1"/>
	<circle cx="40" cy="42.5" r="1"/>
	<circle cx="37" cy="45.5" r="1"/>
</g>
<g>
</g>
<g>
</g>
<g>
</g>
<g>
</g>
<g>
</g>
<g>
</g>
<g>
</g>
<g>
</g>
<g>
</g>
<g>
</g>
<g>
</g>
<g>
</g>
<g>
</g>
<g>
</g>
<g>
</g>
</svg>
