<?xml version="1.0" encoding="iso-8859-1"?>
<!-- Generator: Adobe Illustrator 18.0.0, SVG Export Plug-In . SVG Version: 6.00 Build 0)  -->
<!DOCTYPE svg PUBLIC "-//W3C//DTD SVG 1.1//EN" "http://www.w3.org/Graphics/SVG/1.1/DTD/svg11.dtd">
<svg version="1.1" id="Capa_1" xmlns="http://www.w3.org/2000/svg" xmlns:xlink="http://www.w3.org/1999/xlink" x="0px" y="0px"
	 viewBox="0 0 60 60" style="enable-background:new 0 0 60 60;" xml:space="preserve">
<g>
	<circle cx="52" cy="16" r="1"/>
	<circle cx="49" cy="19" r="1"/>
	<circle cx="49" cy="25" r="1"/>
	<circle cx="49" cy="37" r="1"/>
	<circle cx="52" cy="22" r="1"/>
	<circle cx="52" cy="28" r="1"/>
	<circle cx="49" cy="31" r="1"/>
	<circle cx="52" cy="34" r="1"/>
	<circle cx="52" cy="40" r="1"/>
	<circle cx="49" cy="43" r="1"/>
	<circle cx="46" cy="16" r="1"/>
	<circle cx="43" cy="19" r="1"/>
	<circle cx="43" cy="25" r="1"/>
	<circle cx="46" cy="22" r="1"/>
	<circle cx="40" cy="16" r="1"/>
	<circle cx="37" cy="19" r="1"/>
	<circle cx="37" cy="25" r="1"/>
	<circle cx="37" cy="37" r="1"/>
	<circle cx="40" cy="22" r="1"/>
	<circle cx="46" cy="28" r="1"/>
	<circle cx="43" cy="31" r="1"/>
	<circle cx="43" cy="37" r="1"/>
	<circle cx="46" cy="34" r="1"/>
	<circle cx="40" cy="28" r="1"/>
	<circle cx="37" cy="31" r="1"/>
	<circle cx="40" cy="34" r="1"/>
	<circle cx="46" cy="40" r="1"/>
	<circle cx="43" cy="43" r="1"/>
	<circle cx="40" cy="40" r="1"/>
	<circle cx="37" cy="43" r="1"/>
	<path d="M59,29h-4V15.458C55,13.551,53.448,12,51.541,12H36.458C34.551,12,33,13.551,33,15.458V29h-6V10.458
		C27,8.551,25.449,7,23.542,7H8.458C6.551,7,5,8.551,5,10.458V29H1c-0.552,0-1,0.448-1,1s0.448,1,1,1h4v18.542
		C5,51.449,6.551,53,8.458,53h15.083C25.449,53,27,51.449,27,49.542V31h6v13.542C33,46.449,34.551,48,36.458,48h15.083
		C53.449,48,55,46.449,55,44.542V31h4c0.553,0,1-0.448,1-1S59.553,29,59,29z M53,34v6v4.542C53,45.346,52.346,46,51.542,46H36.458
		C35.654,46,35,45.346,35,44.542V15.458C35,14.654,35.654,14,36.458,14h15.083C52.346,14,53,14.654,53,15.458V16v6v6V34z"/>
</g>
<g>
</g>
<g>
</g>
<g>
</g>
<g>
</g>
<g>
</g>
<g>
</g>
<g>
</g>
<g>
</g>
<g>
</g>
<g>
</g>
<g>
</g>
<g>
</g>
<g>
</g>
<g>
</g>
<g>
</g>
</svg>
