<?xml version="1.0" encoding="iso-8859-1"?>
<!-- Generator: Adobe Illustrator 18.0.0, SVG Export Plug-In . SVG Version: 6.00 Build 0)  -->
<!DOCTYPE svg PUBLIC "-//W3C//DTD SVG 1.1//EN" "http://www.w3.org/Graphics/SVG/1.1/DTD/svg11.dtd">
<svg version="1.1" id="Capa_1" xmlns="http://www.w3.org/2000/svg" xmlns:xlink="http://www.w3.org/1999/xlink" x="0px" y="0px"
	 viewBox="0 0 60 60" style="enable-background:new 0 0 60 60;" xml:space="preserve">
<g>
	<path d="M12.958,27h29.083c1.907,0,3.458-1.551,3.458-3.458V8.458C45.5,6.551,43.949,5,42.042,5H12.958
		C11.051,5,9.5,6.551,9.5,8.458v15.083C9.5,25.449,11.051,27,12.958,27z M11.5,8.458C11.5,7.654,12.154,7,12.958,7h29.083
		C42.846,7,43.5,7.654,43.5,8.458v15.083c0,0.804-0.654,1.458-1.458,1.458H12.958c-0.804,0-1.458-0.654-1.458-1.458V8.458z"/>
	<path d="M52.042,33H12.958C11.051,33,9.5,34.551,9.5,36.458v15.083C9.5,53.449,11.051,55,12.958,55h39.083
		c1.907,0,3.458-1.551,3.458-3.458V36.458C55.5,34.551,53.949,33,52.042,33z"/>
	<path d="M5.5,0c-0.552,0-1,0.448-1,1v58c0,0.552,0.448,1,1,1s1-0.448,1-1V1C6.5,0.448,6.052,0,5.5,0z"/>
	<circle cx="16.5" cy="10" r="1"/>
	<circle cx="22.5" cy="10" r="1"/>
	<circle cx="34.5" cy="10" r="1"/>
	<circle cx="28.5" cy="10" r="1"/>
	<circle cx="40.5" cy="10" r="1"/>
	<circle cx="13.5" cy="13" r="1"/>
	<circle cx="16.5" cy="16" r="1"/>
	<circle cx="22.5" cy="16" r="1"/>
	<circle cx="19.5" cy="13" r="1"/>
	<circle cx="13.5" cy="19" r="1"/>
	<circle cx="16.5" cy="22" r="1"/>
	<circle cx="22.5" cy="22" r="1"/>
	<circle cx="34.5" cy="22" r="1"/>
	<circle cx="19.5" cy="19" r="1"/>
	<circle cx="25.5" cy="13" r="1"/>
	<circle cx="28.5" cy="16" r="1"/>
	<circle cx="34.5" cy="16" r="1"/>
	<circle cx="31.5" cy="13" r="1"/>
	<circle cx="25.5" cy="19" r="1"/>
	<circle cx="28.5" cy="22" r="1"/>
	<circle cx="31.5" cy="19" r="1"/>
	<circle cx="37.5" cy="13" r="1"/>
	<circle cx="40.5" cy="16" r="1"/>
	<circle cx="37.5" cy="19" r="1"/>
	<circle cx="40.5" cy="22" r="1"/>
</g>
<g>
</g>
<g>
</g>
<g>
</g>
<g>
</g>
<g>
</g>
<g>
</g>
<g>
</g>
<g>
</g>
<g>
</g>
<g>
</g>
<g>
</g>
<g>
</g>
<g>
</g>
<g>
</g>
<g>
</g>
</svg>
