<?xml version="1.0" encoding="iso-8859-1"?>
<!-- Generator: Adobe Illustrator 18.0.0, SVG Export Plug-In . SVG Version: 6.00 Build 0)  -->
<!DOCTYPE svg PUBLIC "-//W3C//DTD SVG 1.1//EN" "http://www.w3.org/Graphics/SVG/1.1/DTD/svg11.dtd">
<svg version="1.1" id="Capa_1" xmlns="http://www.w3.org/2000/svg" xmlns:xlink="http://www.w3.org/1999/xlink" x="0px" y="0px"
	 viewBox="0 0 57.101 57.101" style="enable-background:new 0 0 57.101 57.101;" xml:space="preserve">
<g>
	<path d="M57.101,11.946L45.154,0l-5.266,5.267L37.782,3.16l-5.266,5.266l16.16,16.16l5.266-5.266l-2.107-2.106L57.101,11.946z"/>
	<path d="M29.702,32.305c1.352-1.353,1.352-3.553,0-4.905c-0.655-0.655-1.526-1.016-2.453-1.016s-1.797,0.36-2.453,1.016
		c-1.352,1.353-1.352,3.553,0,4.905C26.107,33.615,28.391,33.615,29.702,32.305z"/>
	<path d="M40.843,36.172c0-2.421,0.943-4.696,2.654-6.408L47.261,26L31.102,9.84l-3.763,3.763c-1.712,1.712-3.988,2.654-6.408,2.654
		c-2.421,0-4.697-0.942-6.409-2.654L9.797,8.879L0,55.687l22.745-22.745c-0.623-0.904-0.964-1.97-0.964-3.09
		c0-1.461,0.569-2.834,1.602-3.867c1.033-1.033,2.406-1.602,3.867-1.602s2.834,0.568,3.867,1.602
		c1.033,1.033,1.602,2.406,1.602,3.867c0,1.46-0.569,2.833-1.602,3.866c-1.033,1.033-2.406,1.602-3.867,1.602
		c-1.121,0-2.187-0.341-3.091-0.964L1.414,57.101l46.808-9.798l-4.724-4.724C41.786,40.868,40.843,38.593,40.843,36.172z"/>
</g>
<g>
</g>
<g>
</g>
<g>
</g>
<g>
</g>
<g>
</g>
<g>
</g>
<g>
</g>
<g>
</g>
<g>
</g>
<g>
</g>
<g>
</g>
<g>
</g>
<g>
</g>
<g>
</g>
<g>
</g>
</svg>
