<?xml version="1.0" encoding="iso-8859-1"?>
<!-- Generator: Adobe Illustrator 18.0.0, SVG Export Plug-In . SVG Version: 6.00 Build 0)  -->
<!DOCTYPE svg PUBLIC "-//W3C//DTD SVG 1.1//EN" "http://www.w3.org/Graphics/SVG/1.1/DTD/svg11.dtd">
<svg version="1.1" id="Capa_1" xmlns="http://www.w3.org/2000/svg" xmlns:xlink="http://www.w3.org/1999/xlink" x="0px" y="0px"
	 viewBox="0 0 60 60" style="enable-background:new 0 0 60 60;" xml:space="preserve">
<path d="M59,44h-5V7.414l5.707-5.707c0.391-0.391,0.391-1.023,0-1.414s-1.023-0.391-1.414,0L52.586,6H16V1c0-0.553-0.447-1-1-1H7
	C6.447,0,6,0.447,6,1v5H1C0.447,6,0,6.447,0,7v8c0,0.553,0.447,1,1,1h5v36.586l-5.707,5.707c-0.391,0.391-0.391,1.023,0,1.414
	C0.488,59.902,0.744,60,1,60s0.512-0.098,0.707-0.293L7.414,54H44v5c0,0.553,0.447,1,1,1h8c0.553,0,1-0.447,1-1v-5h5
	c0.553,0,1-0.447,1-1v-8C60,44.447,59.553,44,59,44z M17.414,44L44,17.414V44H17.414z M16,16h26.586L16,42.586V16z"/>
<g>
</g>
<g>
</g>
<g>
</g>
<g>
</g>
<g>
</g>
<g>
</g>
<g>
</g>
<g>
</g>
<g>
</g>
<g>
</g>
<g>
</g>
<g>
</g>
<g>
</g>
<g>
</g>
<g>
</g>
</svg>
