<?xml version="1.0" encoding="iso-8859-1"?>
<!-- Generator: Adobe Illustrator 18.0.0, SVG Export Plug-In . SVG Version: 6.00 Build 0)  -->
<!DOCTYPE svg PUBLIC "-//W3C//DTD SVG 1.1//EN" "http://www.w3.org/Graphics/SVG/1.1/DTD/svg11.dtd">
<svg version="1.1" id="Capa_1" xmlns="http://www.w3.org/2000/svg" xmlns:xlink="http://www.w3.org/1999/xlink" x="0px" y="0px"
	 viewBox="0 0 60 60" style="enable-background:new 0 0 60 60;" xml:space="preserve">
<g>
	<path d="M12.215,42h-1.071c-0.553,0-1,0.447-1,1s0.447,1,1,1h1.071c0.553,0,1-0.447,1-1S12.768,42,12.215,42z"/>
	<path d="M6.857,42H5.786c-0.553,0-1,0.447-1,1s0.447,1,1,1h1.071c0.553,0,1-0.447,1-1S7.41,42,6.857,42z"/>
	<path d="M1.912,42.088C1.755,41.741,1.405,41.5,1,41.5c-0.553,0-1,0.447-1,1V44h1.5c0.553,0,1-0.447,1-1
		C2.5,42.595,2.259,42.245,1.912,42.088z"/>
	<path d="M1,28.782c0.553,0,1-0.447,1-1V26.73c0-0.553-0.447-1-1-1s-1,0.447-1,1v1.052C0,28.335,0.447,28.782,1,28.782z"/>
	<path d="M1,13.013c0.553,0,1-0.447,1-1v-1.051c0-0.553-0.447-1-1-1s-1,0.447-1,1v1.051C0,12.565,0.447,13.013,1,13.013z"/>
	<path d="M1,18.27c0.553,0,1-0.447,1-1v-1.052c0-0.553-0.447-1-1-1s-1,0.447-1,1v1.052C0,17.822,0.447,18.27,1,18.27z"/>
	<path d="M1,7.757c0.553,0,1-0.447,1-1V5.705c0-0.553-0.447-1-1-1s-1,0.447-1,1v1.052C0,7.31,0.447,7.757,1,7.757z"/>
	<path d="M1,34.038c0.553,0,1-0.447,1-1v-1.051c0-0.553-0.447-1-1-1s-1,0.447-1,1v1.051C0,33.591,0.447,34.038,1,34.038z"/>
	<path d="M1,23.525c0.553,0,1-0.447,1-1v-1.051c0-0.553-0.447-1-1-1s-1,0.447-1,1v1.051C0,23.078,0.447,23.525,1,23.525z"/>
	<path d="M1,39.295c0.553,0,1-0.447,1-1v-1.052c0-0.553-0.447-1-1-1s-1,0.447-1,1v1.052C0,38.848,0.447,39.295,1,39.295z"/>
	<path d="M1.5,0H0v1.5c0,0.553,0.447,1,1,1c0.405,0,0.755-0.241,0.912-0.588C2.259,1.755,2.5,1.405,2.5,1C2.5,0.447,2.053,0,1.5,0z"
		/>
	<path d="M21.475,2h1.051c0.553,0,1-0.447,1-1s-0.447-1-1-1h-1.051c-0.553,0-1,0.447-1,1S20.922,2,21.475,2z"/>
	<path d="M31.987,2h1.051c0.553,0,1-0.447,1-1s-0.447-1-1-1h-1.051c-0.553,0-1,0.447-1,1S31.435,2,31.987,2z"/>
	<path d="M26.73,2h1.052c0.553,0,1-0.447,1-1s-0.447-1-1-1H26.73c-0.553,0-1,0.447-1,1S26.178,2,26.73,2z"/>
	<path d="M37.243,2h1.052c0.553,0,1-0.447,1-1s-0.447-1-1-1h-1.052c-0.553,0-1,0.447-1,1S36.69,2,37.243,2z"/>
	<path d="M5.705,2h1.052c0.553,0,1-0.447,1-1s-0.447-1-1-1H5.705c-0.553,0-1,0.447-1,1S5.152,2,5.705,2z"/>
	<path d="M10.962,2h1.051c0.553,0,1-0.447,1-1s-0.447-1-1-1h-1.051c-0.553,0-1,0.447-1,1S10.409,2,10.962,2z"/>
	<path d="M16.218,2h1.052c0.553,0,1-0.447,1-1s-0.447-1-1-1h-1.052c-0.553,0-1,0.447-1,1S15.665,2,16.218,2z"/>
	<path d="M42.088,1.912C42.245,2.259,42.595,2.5,43,2.5c0.553,0,1-0.447,1-1V0h-1.5c-0.553,0-1,0.447-1,1
		C41.5,1.405,41.741,1.755,42.088,1.912z"/>
	<path d="M44,5.786c0-0.553-0.447-1-1-1s-1,0.447-1,1v1.071c0,0.553,0.447,1,1,1s1-0.447,1-1V5.786z"/>
	<path d="M43,10.144c-0.553,0-1,0.447-1,1v1.071c0,0.553,0.447,1,1,1s1-0.447,1-1v-1.071C44,10.591,43.553,10.144,43,10.144z"/>
	<path d="M43.847,16c-0.174-0.294-0.48-0.5-0.847-0.5s-0.673,0.206-0.847,0.5H42v0.5V17v25H17h-0.5H16v0.153
		c-0.294,0.174-0.5,0.481-0.5,0.847s0.206,0.673,0.5,0.847V60h44V16H43.847z"/>
</g>
<g>
</g>
<g>
</g>
<g>
</g>
<g>
</g>
<g>
</g>
<g>
</g>
<g>
</g>
<g>
</g>
<g>
</g>
<g>
</g>
<g>
</g>
<g>
</g>
<g>
</g>
<g>
</g>
<g>
</g>
</svg>
