<?xml version="1.0" encoding="iso-8859-1"?>
<!-- Generator: Adobe Illustrator 18.0.0, SVG Export Plug-In . SVG Version: 6.00 Build 0)  -->
<!DOCTYPE svg PUBLIC "-//W3C//DTD SVG 1.1//EN" "http://www.w3.org/Graphics/SVG/1.1/DTD/svg11.dtd">
<svg version="1.1" id="Capa_1" xmlns="http://www.w3.org/2000/svg" xmlns:xlink="http://www.w3.org/1999/xlink" x="0px" y="0px"
	 viewBox="0 0 60.02 60.02" style="enable-background:new 0 0 60.02 60.02;" xml:space="preserve">
<g>
	<path d="M59.598,58.194l-6.971-6.97l-2.829,2.829c-0.195,0.195-0.451,0.293-0.707,0.293s-0.512-0.098-0.707-0.293
		c-0.391-0.391-0.391-1.023,0-1.414l2.829-2.829l-2.122-2.122l-4.243,4.243c-0.195,0.195-0.451,0.293-0.707,0.293
		s-0.512-0.098-0.707-0.293c-0.391-0.391-0.391-1.023,0-1.414l4.243-4.243l-2.121-2.121l-2.829,2.829
		c-0.195,0.195-0.451,0.293-0.707,0.293s-0.512-0.098-0.707-0.293c-0.391-0.391-0.391-1.023,0-1.414l2.829-2.829l-2.122-2.121
		l-4.243,4.243c-0.195,0.195-0.451,0.293-0.707,0.293s-0.512-0.098-0.707-0.293c-0.391-0.391-0.391-1.023,0-1.414l4.243-4.243
		l-2.122-2.121l-2.829,2.828c-0.195,0.195-0.451,0.293-0.707,0.293s-0.512-0.098-0.707-0.293c-0.391-0.391-0.391-1.023,0-1.414
		l2.829-2.828l-2.122-2.122l-4.243,4.243c-0.195,0.195-0.451,0.293-0.707,0.293s-0.512-0.098-0.707-0.293
		c-0.391-0.391-0.391-1.023,0-1.414l4.243-4.243l-2.121-2.121l-2.828,2.828c-0.195,0.195-0.451,0.293-0.707,0.293
		s-0.512-0.098-0.707-0.293c-0.391-0.391-0.391-1.023,0-1.414L30,28.596l-2.122-2.121l-4.243,4.243
		c-0.195,0.195-0.451,0.293-0.707,0.293s-0.512-0.098-0.707-0.293c-0.391-0.391-0.391-1.023,0-1.414l4.243-4.243l-2.122-2.122
		l-2.828,2.828c-0.195,0.195-0.451,0.293-0.707,0.293s-0.512-0.098-0.707-0.293c-0.391-0.391-0.391-1.023,0-1.414l2.828-2.828
		l-2.121-2.121l-4.243,4.242c-0.195,0.195-0.451,0.293-0.707,0.293s-0.512-0.098-0.707-0.293c-0.391-0.391-0.391-1.023,0-1.414
		l4.243-4.242l-2.122-2.121l-2.829,2.829c-0.195,0.195-0.451,0.293-0.707,0.293s-0.512-0.098-0.707-0.293
		c-0.391-0.391-0.391-1.023,0-1.414l2.829-2.829l-2.122-2.122l-4.243,4.242c-0.195,0.195-0.451,0.293-0.707,0.293
		S8.275,16.77,8.08,16.575c-0.391-0.391-0.391-1.023,0-1.414l4.243-4.242l-2.121-2.121l-2.828,2.828
		c-0.195,0.195-0.451,0.293-0.707,0.293s-0.512-0.098-0.707-0.293c-0.391-0.391-0.391-1.023,0-1.414l2.828-2.828l-7.08-7.08
		C1.42,0.017,0.992-0.07,0.617,0.087C0.244,0.241,0,0.606,0,1.011v58c0,0.553,0.448,1,1,1h58c0.007-0.001,0.014,0,0.02,0
		c0.552,0,1-0.447,1-1C60.02,58.674,59.854,58.376,59.598,58.194z M30.049,48.011c-0.006,0-0.013,0-0.02,0H13c-0.552,0-1-0.447-1-1
		V29.981c0-0.404,0.244-0.77,0.617-0.924c0.374-0.158,0.803-0.069,1.09,0.217l16.92,16.921c0.255,0.181,0.422,0.479,0.422,0.815
		C31.049,47.563,30.602,48.011,30.049,48.011z"/>
</g>
<g>
</g>
<g>
</g>
<g>
</g>
<g>
</g>
<g>
</g>
<g>
</g>
<g>
</g>
<g>
</g>
<g>
</g>
<g>
</g>
<g>
</g>
<g>
</g>
<g>
</g>
<g>
</g>
<g>
</g>
</svg>
