<?xml version="1.0" encoding="iso-8859-1"?>
<!-- Generator: Adobe Illustrator 18.0.0, SVG Export Plug-In . SVG Version: 6.00 Build 0)  -->
<!DOCTYPE svg PUBLIC "-//W3C//DTD SVG 1.1//EN" "http://www.w3.org/Graphics/SVG/1.1/DTD/svg11.dtd">
<svg version="1.1" id="Capa_1" xmlns="http://www.w3.org/2000/svg" xmlns:xlink="http://www.w3.org/1999/xlink" x="0px" y="0px"
	 viewBox="0 0 60 60" style="enable-background:new 0 0 60 60;" xml:space="preserve">
<path d="M19,0h-2H0v17v2v41h16v-5H8c-0.553,0-1-0.447-1-1s0.447-1,1-1h8v-4h-5c-0.553,0-1-0.447-1-1s0.447-1,1-1h5v-4H8
	c-0.553,0-1-0.447-1-1s0.447-1,1-1h8v-4h-5c-0.553,0-1-0.447-1-1s0.447-1,1-1h5v-4H8c-0.553,0-1-0.447-1-1s0.447-1,1-1h8v-4h-5
	c-0.553,0-1-0.447-1-1s0.447-1,1-1h5v-4h3v-3h4v-5c0-0.553,0.447-1,1-1s1,0.447,1,1v5h4V8c0-0.553,0.447-1,1-1s1,0.447,1,1v8h4v-5
	c0-0.553,0.447-1,1-1s1,0.447,1,1v5h4V8c0-0.553,0.447-1,1-1s1,0.447,1,1v8h4v-5c0-0.553,0.447-1,1-1s1,0.447,1,1v5h4V8
	c0-0.553,0.447-1,1-1s1,0.447,1,1v8h5V0H19z"/>
<g>
</g>
<g>
</g>
<g>
</g>
<g>
</g>
<g>
</g>
<g>
</g>
<g>
</g>
<g>
</g>
<g>
</g>
<g>
</g>
<g>
</g>
<g>
</g>
<g>
</g>
<g>
</g>
<g>
</g>
</svg>
