<?xml version="1.0" encoding="iso-8859-1"?>
<!-- Generator: Adobe Illustrator 18.0.0, SVG Export Plug-In . SVG Version: 6.00 Build 0)  -->
<!DOCTYPE svg PUBLIC "-//W3C//DTD SVG 1.1//EN" "http://www.w3.org/Graphics/SVG/1.1/DTD/svg11.dtd">
<svg version="1.1" id="Capa_1" xmlns="http://www.w3.org/2000/svg" xmlns:xlink="http://www.w3.org/1999/xlink" x="0px" y="0px"
	 viewBox="0 0 60 60" style="enable-background:new 0 0 60 60;" xml:space="preserve">
<g>
	<path d="M4.713,21.018c-0.242,0.644-0.462,1.307-0.654,1.971c-0.154,0.53,0.152,1.085,0.683,1.238
		c0.093,0.027,0.186,0.04,0.278,0.04c0.434,0,0.833-0.285,0.96-0.723c0.178-0.615,0.381-1.229,0.605-1.824
		C6.779,21.204,6.518,20.627,6,20.433C5.486,20.239,4.907,20.5,4.713,21.018z"/>
	<path d="M43.21,8.084c-0.299,0.464-0.165,1.083,0.299,1.382c0.539,0.347,1.069,0.718,1.577,1.102
		c0.181,0.137,0.393,0.203,0.603,0.203c0.303,0,0.602-0.137,0.798-0.396c0.333-0.44,0.247-1.067-0.194-1.401
		c-0.547-0.415-1.12-0.814-1.701-1.189C44.129,7.485,43.509,7.619,43.21,8.084z"/>
	<path d="M16.585,7.069c-0.597,0.342-1.189,0.712-1.761,1.102c-0.457,0.311-0.575,0.933-0.264,1.389
		c0.193,0.285,0.508,0.438,0.828,0.438c0.194,0,0.39-0.056,0.562-0.173c0.529-0.36,1.078-0.703,1.63-1.02
		c0.479-0.274,0.645-0.886,0.371-1.365C17.676,6.96,17.065,6.794,16.585,7.069z"/>
	<path d="M54.483,21.674c-0.526,0.167-0.817,0.73-0.65,1.256c0.192,0.604,0.363,1.227,0.51,1.852
		c0.107,0.461,0.519,0.772,0.973,0.772c0.075,0,0.152-0.008,0.229-0.026c0.538-0.125,0.872-0.663,0.746-1.201
		c-0.157-0.675-0.343-1.349-0.551-2.003C55.571,21.798,55.008,21.508,54.483,21.674z"/>
	<path d="M53.286,19.923c0.149,0,0.302-0.034,0.444-0.105c0.495-0.246,0.696-0.846,0.45-1.341c-0.31-0.621-0.646-1.234-0.999-1.823
		c-0.284-0.473-0.897-0.627-1.372-0.343c-0.474,0.285-0.627,0.899-0.343,1.372c0.327,0.544,0.638,1.111,0.923,1.685
		C52.564,19.72,52.919,19.923,53.286,19.923z"/>
	<path d="M56.922,28.428c-0.042-0.551-0.523-0.958-1.072-0.922c-0.551,0.042-0.964,0.521-0.922,1.072
		c0.023,0.305,0.023,0.614,0.035,0.922H52v8h8v-8h-3.038C56.949,29.142,56.949,28.782,56.922,28.428z"/>
	<path d="M49.398,11.724c-0.385-0.398-1.018-0.406-1.414-0.022s-0.406,1.017-0.021,1.414c0.443,0.458,0.875,0.939,1.283,1.431
		c0.197,0.238,0.482,0.361,0.771,0.361c0.225,0,0.451-0.076,0.638-0.23c0.425-0.353,0.483-0.983,0.131-1.408
		C50.344,12.738,49.878,12.218,49.398,11.724z"/>
	<path d="M12.948,12.223c0.404-0.377,0.426-1.01,0.049-1.414c-0.377-0.404-1.01-0.425-1.414-0.049
		c-0.504,0.47-0.996,0.966-1.463,1.474c-0.374,0.406-0.347,1.039,0.06,1.413c0.192,0.176,0.435,0.264,0.676,0.264
		c0.27,0,0.54-0.109,0.737-0.323C12.025,13.117,12.481,12.658,12.948,12.223z"/>
	<path d="M5.032,29.22c0.033-0.641,0.09-1.285,0.17-1.916c0.069-0.548-0.318-1.048-0.866-1.118
		c-0.538-0.066-1.048,0.317-1.118,0.866c-0.086,0.68-0.148,1.375-0.183,2.066C3.028,29.253,3.05,29.381,3.092,29.5H0v8h8v-8H4.962
		C4.994,29.41,5.027,29.32,5.032,29.22z"/>
	<path d="M7.555,15.492c-0.384,0.572-0.75,1.167-1.089,1.768c-0.271,0.481-0.102,1.091,0.38,1.362
		c0.155,0.087,0.324,0.129,0.49,0.129c0.349,0,0.688-0.183,0.872-0.509c0.313-0.556,0.653-1.106,1.008-1.636
		c0.308-0.459,0.185-1.08-0.273-1.388C8.482,14.91,7.862,15.033,7.555,15.492z"/>
	<path d="M4,8.5c1.858,0,3.411-1.28,3.858-3h12.143c-0.282,0.27-0.391,0.693-0.242,1.08c0.152,0.398,0.532,0.643,0.934,0.643
		c0.119,0,0.24-0.021,0.358-0.067c0.597-0.229,1.209-0.437,1.82-0.618C23.332,6.401,23.6,5.961,23.563,5.5h2.315
		C25.921,5.535,25.952,5.584,26,5.611v0.555V8.5h3.667h2H34V5.833c0.213,0.034,0.427,0.064,0.638,0.104
		c0.063,0.012,0.125,0.017,0.186,0.017c0.339,0,0.647-0.178,0.829-0.454h2.179c-0.031,0.053-0.073,0.097-0.094,0.156
		c-0.185,0.521,0.087,1.092,0.608,1.277c0.604,0.214,1.204,0.454,1.785,0.711c0.132,0.059,0.27,0.086,0.405,0.086
		c0.383,0,0.75-0.222,0.915-0.595c0.224-0.505-0.004-1.096-0.509-1.319c-0.258-0.115-0.529-0.209-0.793-0.316h11.994
		c0.447,1.72,1.999,3,3.858,3c2.206,0,4-1.794,4-4s-1.794-4-4-4c-1.859,0-3.411,1.28-3.858,3H34v-3h-8v3H7.858
		c-0.447-1.72-2-3-3.858-3c-2.206,0-4,1.794-4,4S1.794,8.5,4,8.5z"/>
	<path d="M31,32.642c1.72,0.447,3,2,3,3.858c0,2.206-1.794,4-4,4s-4-1.794-4-4c0-1.858,1.28-3.411,3-3.858v-21.44L11.151,38.5h5.093
		c3.173,0,5.755,2.582,5.755,5.756V47.5h16v-3.244c0-3.174,2.582-5.756,5.756-5.756h5.093L31,11.202V32.642z"/>
	<path d="M22,54.5h2v5h12v-5h2v-5H22V54.5z M26,54.5h8v3h-8V54.5z"/>
</g>
<g>
</g>
<g>
</g>
<g>
</g>
<g>
</g>
<g>
</g>
<g>
</g>
<g>
</g>
<g>
</g>
<g>
</g>
<g>
</g>
<g>
</g>
<g>
</g>
<g>
</g>
<g>
</g>
<g>
</g>
</svg>
