<?xml version="1.0" encoding="iso-8859-1"?>
<!-- Generator: Adobe Illustrator 18.0.0, SVG Export Plug-In . SVG Version: 6.00 Build 0)  -->
<!DOCTYPE svg PUBLIC "-//W3C//DTD SVG 1.1//EN" "http://www.w3.org/Graphics/SVG/1.1/DTD/svg11.dtd">
<svg version="1.1" id="Capa_1" xmlns="http://www.w3.org/2000/svg" xmlns:xlink="http://www.w3.org/1999/xlink" x="0px" y="0px"
	 viewBox="0 0 59.527 59.527" style="enable-background:new 0 0 59.527 59.527;" xml:space="preserve">
<g>
	<polygon points="15.664,47.76 17.156,53.327 35.095,48.52 33.491,42.535 	"/>
	<path d="M13.81,1.32l6.665,24.66c0.062-0.003,0.124-0.012,0.186-0.012c2.054,0,3.861,1.388,4.394,3.374
		c0.649,2.424-0.794,4.925-3.218,5.574c-0.386,0.104-0.783,0.156-1.18,0.156c-2.055,0-3.862-1.388-4.394-3.375
		c-0.315-1.174-0.153-2.4,0.454-3.453c0.437-0.756,1.072-1.35,1.827-1.745l-6.62-24.494L0,38.316l5.495-1.472
		c0.596-0.159,1.207-0.24,1.817-0.24c3.157,0,5.934,2.133,6.752,5.188l1.082,4.036l17.827-5.225l-0.969-3.617
		c-0.483-1.806-0.235-3.691,0.699-5.31s2.443-2.776,4.249-3.26l5.495-1.473L13.81,1.32z"/>
	<path d="M18.194,31.18c0.356,1.329,1.781,2.167,3.125,1.805c1.358-0.364,2.168-1.767,1.804-3.125
		c-0.299-1.113-1.311-1.892-2.462-1.892c-0.221,0-0.443,0.029-0.66,0.088l-0.001,0c-0.001,0-0.002,0-0.003,0
		c-0.658,0.177-1.208,0.599-1.548,1.188C18.108,29.835,18.018,30.522,18.194,31.18z"/>
	<path d="M48.527,36.206c-6.065,0-11,4.935-11,11s4.935,11,11,11s11-4.935,11-11S54.592,36.206,48.527,36.206z M54.527,48.206h-12
		c-0.552,0-1-0.447-1-1s0.448-1,1-1h12c0.552,0,1,0.447,1,1S55.079,48.206,54.527,48.206z"/>
</g>
<g>
</g>
<g>
</g>
<g>
</g>
<g>
</g>
<g>
</g>
<g>
</g>
<g>
</g>
<g>
</g>
<g>
</g>
<g>
</g>
<g>
</g>
<g>
</g>
<g>
</g>
<g>
</g>
<g>
</g>
</svg>
