<?xml version="1.0" encoding="iso-8859-1"?>
<!-- Generator: Adobe Illustrator 18.0.0, SVG Export Plug-In . SVG Version: 6.00 Build 0)  -->
<!DOCTYPE svg PUBLIC "-//W3C//DTD SVG 1.1//EN" "http://www.w3.org/Graphics/SVG/1.1/DTD/svg11.dtd">
<svg version="1.1" id="Capa_1" xmlns="http://www.w3.org/2000/svg" xmlns:xlink="http://www.w3.org/1999/xlink" x="0px" y="0px"
	 viewBox="0 0 60 60" style="enable-background:new 0 0 60 60;" xml:space="preserve">
<g>
	<path d="M0,20h6V6h14V0H0V20z"/>
	<path d="M40,0v6h14v14h6V0H40z"/>
	<path d="M54,54H40v6h20V40h-6V54z"/>
	<path d="M6,40H0v20h20v-6H6V40z"/>
	<path d="M30,3c-4.963,0-9,4.037-9,9v12c0,2.218,0.833,4.353,2.314,6C21.833,31.647,21,33.782,21,36v12c0,4.963,4.037,9,9,9
		s9-4.037,9-9V36c0-2.218-0.833-4.353-2.314-6C38.167,28.353,39,26.218,39,24V12C39,7.037,34.963,3,30,3z M37,24
		c0,1.997-0.873,3.91-2.395,5.249L33.752,30l0.854,0.751C36.127,32.09,37,34.003,37,36v12c0,3.859-3.141,7-7,7s-7-3.141-7-7V36
		c0-1.997,0.873-3.91,2.395-5.249L26.249,30l-0.854-0.751C23.873,27.91,23,25.997,23,24V12c0-3.859,3.141-7,7-7s7,3.141,7,7V24z"/>
	<path d="M31,40V20c0-0.553-0.447-1-1-1s-1,0.447-1,1v20c0,0.553,0.447,1,1,1S31,40.553,31,40z"/>
	<path d="M30,7c-2.757,0-5,2.243-5,5v12c0,1.902,0.333,2.504,1.216,3.62c0.342,0.434,0.971,0.509,1.404,0.164
		c0.434-0.342,0.507-0.971,0.164-1.404C27.135,25.559,27,25.388,27,24V12c0-1.654,1.346-3,3-3s3,1.346,3,3v12
		c0,1.388-0.135,1.559-0.784,2.38c-0.343,0.434-0.27,1.063,0.164,1.404C32.563,27.93,32.782,28,32.999,28
		c0.296,0,0.588-0.13,0.785-0.38C34.667,26.504,35,25.902,35,24V12C35,9.243,32.757,7,30,7z"/>
	<path d="M32.38,32.216c-0.434,0.342-0.507,0.971-0.164,1.404C32.865,34.441,33,34.612,33,36v12c0,1.654-1.346,3-3,3s-3-1.346-3-3
		V36c0-1.388,0.135-1.559,0.784-2.38c0.343-0.434,0.27-1.063-0.164-1.404c-0.434-0.343-1.063-0.269-1.404,0.164
		C25.333,33.496,25,34.098,25,36v12c0,2.757,2.243,5,5,5s5-2.243,5-5V36c0-1.902-0.333-2.504-1.216-3.62
		C33.442,31.947,32.814,31.873,32.38,32.216z"/>
</g>
<g>
</g>
<g>
</g>
<g>
</g>
<g>
</g>
<g>
</g>
<g>
</g>
<g>
</g>
<g>
</g>
<g>
</g>
<g>
</g>
<g>
</g>
<g>
</g>
<g>
</g>
<g>
</g>
<g>
</g>
</svg>
