<?xml version="1.0" encoding="iso-8859-1"?>
<!-- Generator: Adobe Illustrator 18.0.0, SVG Export Plug-In . SVG Version: 6.00 Build 0)  -->
<!DOCTYPE svg PUBLIC "-//W3C//DTD SVG 1.1//EN" "http://www.w3.org/Graphics/SVG/1.1/DTD/svg11.dtd">
<svg version="1.1" id="Capa_1" xmlns="http://www.w3.org/2000/svg" xmlns:xlink="http://www.w3.org/1999/xlink" x="0px" y="0px"
	 viewBox="0 0 60 60" style="enable-background:new 0 0 60 60;" xml:space="preserve">
<g>
	<path d="M1,7h11v16.542C12,25.449,13.551,27,15.458,27h29.083C46.448,27,48,25.449,48,23.542V7h11c0.553,0,1-0.448,1-1
		s-0.447-1-1-1H47H13H1C0.447,5,0,5.448,0,6S0.447,7,1,7z M16,7h6h6h6h6h6v16.542C46,24.346,45.346,25,44.541,25H15.458
		C14.654,25,14,24.346,14,23.542V7H16z"/>
	<path d="M59,33h-7H8H1c-0.553,0-1,0.448-1,1s0.447,1,1,1h6v16.542C7,53.449,8.551,55,10.458,55h39.083
		C51.448,55,53,53.449,53,51.542V35h6c0.553,0,1-0.448,1-1S59.553,33,59,33z"/>
	<circle cx="16" cy="8" r="1"/>
	<circle cx="19" cy="11" r="1"/>
	<circle cx="25" cy="11" r="1"/>
	<circle cx="37" cy="11" r="1"/>
	<circle cx="22" cy="8" r="1"/>
	<circle cx="28" cy="8" r="1"/>
	<circle cx="31" cy="11" r="1"/>
	<circle cx="34" cy="8" r="1"/>
	<circle cx="40" cy="8" r="1"/>
	<circle cx="43" cy="11" r="1"/>
	<circle cx="16" cy="14" r="1"/>
	<circle cx="19" cy="17" r="1"/>
	<circle cx="25" cy="17" r="1"/>
	<circle cx="22" cy="14" r="1"/>
	<circle cx="16" cy="20" r="1"/>
	<circle cx="19" cy="23" r="1"/>
	<circle cx="25" cy="23" r="1"/>
	<circle cx="37" cy="23" r="1"/>
	<circle cx="22" cy="20" r="1"/>
	<circle cx="28" cy="14" r="1"/>
	<circle cx="31" cy="17" r="1"/>
	<circle cx="37" cy="17" r="1"/>
	<circle cx="34" cy="14" r="1"/>
	<circle cx="28" cy="20" r="1"/>
	<circle cx="31" cy="23" r="1"/>
	<circle cx="34" cy="20" r="1"/>
	<circle cx="40" cy="14" r="1"/>
	<circle cx="43" cy="17" r="1"/>
	<circle cx="40" cy="20" r="1"/>
	<circle cx="43" cy="23" r="1"/>
</g>
<g>
</g>
<g>
</g>
<g>
</g>
<g>
</g>
<g>
</g>
<g>
</g>
<g>
</g>
<g>
</g>
<g>
</g>
<g>
</g>
<g>
</g>
<g>
</g>
<g>
</g>
<g>
</g>
<g>
</g>
</svg>
