<?xml version="1.0" encoding="iso-8859-1"?>
<!-- Generator: Adobe Illustrator 18.0.0, SVG Export Plug-In . SVG Version: 6.00 Build 0)  -->
<!DOCTYPE svg PUBLIC "-//W3C//DTD SVG 1.1//EN" "http://www.w3.org/Graphics/SVG/1.1/DTD/svg11.dtd">
<svg version="1.1" id="Capa_1" xmlns="http://www.w3.org/2000/svg" xmlns:xlink="http://www.w3.org/1999/xlink" x="0px" y="0px"
	 viewBox="0 0 60 60" style="enable-background:new 0 0 60 60;" xml:space="preserve">
<g>
	<path d="M51.542,12H45V1c0-0.553-0.448-1-1-1s-1,0.447-1,1v11h-6.542C34.551,12,33,13.551,33,15.458v29.083
		C33,46.448,34.551,48,36.458,48H43v11c0,0.553,0.448,1,1,1s1-0.447,1-1V48h6.542C53.449,48,55,46.448,55,44.541V15.458
		C55,13.551,53.449,12,51.542,12z M53,16v6v6v6v6v4.541C53,45.346,52.346,46,51.542,46H36.458C35.654,46,35,45.346,35,44.541V15.458
		C35,14.654,35.654,14,36.458,14h15.083C52.346,14,53,14.654,53,15.458V16z"/>
	<path d="M23.542,7H17V1c0-0.553-0.448-1-1-1s-1,0.447-1,1v6H8.458C6.551,7,5,8.551,5,10.458v39.083C5,51.448,6.551,53,8.458,53H15
		v6c0,0.553,0.448,1,1,1s1-0.447,1-1v-6h6.542C25.449,53,27,51.448,27,49.541V10.458C27,8.551,25.449,7,23.542,7z"/>
	<circle cx="52" cy="16" r="1"/>
	<circle cx="49" cy="19" r="1"/>
	<circle cx="49" cy="25" r="1"/>
	<circle cx="49" cy="37" r="1"/>
	<circle cx="52" cy="22" r="1"/>
	<circle cx="52" cy="28" r="1"/>
	<circle cx="49" cy="31" r="1"/>
	<circle cx="52" cy="34" r="1"/>
	<circle cx="52" cy="40" r="1"/>
	<circle cx="49" cy="43" r="1"/>
	<circle cx="46" cy="16" r="1"/>
	<circle cx="43" cy="19" r="1"/>
	<circle cx="43" cy="25" r="1"/>
	<circle cx="46" cy="22" r="1"/>
	<circle cx="40" cy="16" r="1"/>
	<circle cx="37" cy="19" r="1"/>
	<circle cx="37" cy="25" r="1"/>
	<circle cx="37" cy="37" r="1"/>
	<circle cx="40" cy="22" r="1"/>
	<circle cx="46" cy="28" r="1"/>
	<circle cx="43" cy="31" r="1"/>
	<circle cx="43" cy="37" r="1"/>
	<circle cx="46" cy="34" r="1"/>
	<circle cx="40" cy="28" r="1"/>
	<circle cx="37" cy="31" r="1"/>
	<circle cx="40" cy="34" r="1"/>
	<circle cx="46" cy="40" r="1"/>
	<circle cx="43" cy="43" r="1"/>
	<circle cx="40" cy="40" r="1"/>
	<circle cx="37" cy="43" r="1"/>
</g>
<g>
</g>
<g>
</g>
<g>
</g>
<g>
</g>
<g>
</g>
<g>
</g>
<g>
</g>
<g>
</g>
<g>
</g>
<g>
</g>
<g>
</g>
<g>
</g>
<g>
</g>
<g>
</g>
<g>
</g>
</svg>
