<?xml version="1.0" encoding="iso-8859-1"?>
<!-- Generator: Adobe Illustrator 18.0.0, SVG Export Plug-In . SVG Version: 6.00 Build 0)  -->
<!DOCTYPE svg PUBLIC "-//W3C//DTD SVG 1.1//EN" "http://www.w3.org/Graphics/SVG/1.1/DTD/svg11.dtd">
<svg version="1.1" id="Capa_1" xmlns="http://www.w3.org/2000/svg" xmlns:xlink="http://www.w3.org/1999/xlink" x="0px" y="0px"
	 viewBox="0 0 60 60" style="enable-background:new 0 0 60 60;" xml:space="preserve">
<g>
	<path d="M47.042,33H7.958C6.051,33,4.5,34.551,4.5,36.458v15.083C4.5,53.449,6.051,55,7.958,55h39.083
		c1.907,0,3.458-1.551,3.458-3.458V36.458C50.5,34.551,48.949,33,47.042,33z"/>
	<path d="M54.5,0c-0.552,0-1,0.448-1,1v58c0,0.552,0.448,1,1,1s1-0.448,1-1V1C55.5,0.448,55.052,0,54.5,0z"/>
	<path d="M47.042,5H17.958C16.051,5,14.5,6.551,14.5,8.458v15.083c0,1.907,1.551,3.458,3.458,3.458h29.083
		c1.907,0,3.458-1.551,3.458-3.458V8.458C50.5,6.551,48.949,5,47.042,5z M48.5,23.542c0,0.804-0.654,1.458-1.458,1.458H17.958
		c-0.804,0-1.458-0.654-1.458-1.458V8.458C16.5,7.654,17.154,7,17.958,7H18.5h6h6h6h6h4.542C47.846,7,48.5,7.654,48.5,8.458V23.542z
		"/>
	<circle cx="18.5" cy="8" r="1"/>
	<circle cx="21.5" cy="11" r="1"/>
	<circle cx="27.5" cy="11" r="1"/>
	<circle cx="39.5" cy="11" r="1"/>
	<circle cx="24.5" cy="8" r="1"/>
	<circle cx="30.5" cy="8" r="1"/>
	<circle cx="33.5" cy="11" r="1"/>
	<circle cx="36.5" cy="8" r="1"/>
	<circle cx="42.5" cy="8" r="1"/>
	<circle cx="45.5" cy="11" r="1"/>
	<circle cx="18.5" cy="14" r="1"/>
	<circle cx="21.5" cy="17" r="1"/>
	<circle cx="27.5" cy="17" r="1"/>
	<circle cx="24.5" cy="14" r="1"/>
	<circle cx="18.5" cy="20" r="1"/>
	<circle cx="21.5" cy="23" r="1"/>
	<circle cx="27.5" cy="23" r="1"/>
	<circle cx="39.5" cy="23" r="1"/>
	<circle cx="24.5" cy="20" r="1"/>
	<circle cx="30.5" cy="14" r="1"/>
	<circle cx="33.5" cy="17" r="1"/>
	<circle cx="39.5" cy="17" r="1"/>
	<circle cx="36.5" cy="14" r="1"/>
	<circle cx="30.5" cy="20" r="1"/>
	<circle cx="33.5" cy="23" r="1"/>
	<circle cx="36.5" cy="20" r="1"/>
	<circle cx="42.5" cy="14" r="1"/>
	<circle cx="45.5" cy="17" r="1"/>
	<circle cx="42.5" cy="20" r="1"/>
	<circle cx="45.5" cy="23" r="1"/>
</g>
<g>
</g>
<g>
</g>
<g>
</g>
<g>
</g>
<g>
</g>
<g>
</g>
<g>
</g>
<g>
</g>
<g>
</g>
<g>
</g>
<g>
</g>
<g>
</g>
<g>
</g>
<g>
</g>
<g>
</g>
</svg>
