<?xml version="1.0" encoding="iso-8859-1"?>
<!-- Generator: Adobe Illustrator 18.0.0, SVG Export Plug-In . SVG Version: 6.00 Build 0)  -->
<!DOCTYPE svg PUBLIC "-//W3C//DTD SVG 1.1//EN" "http://www.w3.org/Graphics/SVG/1.1/DTD/svg11.dtd">
<svg version="1.1" id="Capa_1" xmlns="http://www.w3.org/2000/svg" xmlns:xlink="http://www.w3.org/1999/xlink" x="0px" y="0px"
	 viewBox="0 0 60 60" style="enable-background:new 0 0 60 60;" xml:space="preserve">
<g>
	<path d="M49.542,33H31v-6h13.542C46.449,27,48,25.449,48,23.542V8.458C48,6.551,46.449,5,44.542,5H31V1c0-0.552-0.448-1-1-1
		s-1,0.448-1,1v4H15.458C13.551,5,12,6.551,12,8.458v15.083C12,25.449,13.551,27,15.458,27H29v6H10.458C8.551,33,7,34.551,7,36.458
		v15.083C7,53.449,8.551,55,10.458,55H29v4c0,0.552,0.448,1,1,1s1-0.448,1-1v-4h18.542C51.449,55,53,53.449,53,51.542V36.458
		C53,34.551,51.449,33,49.542,33z M14,23.542V8.458C14,7.654,14.654,7,15.458,7H16h6h6h6h6h4.542C45.346,7,46,7.654,46,8.458v15.083
		C46,24.346,45.346,25,44.542,25H15.458C14.654,25,14,24.346,14,23.542z"/>
	<circle cx="16" cy="8" r="1"/>
	<circle cx="19" cy="11" r="1"/>
	<circle cx="25" cy="11" r="1"/>
	<circle cx="37" cy="11" r="1"/>
	<circle cx="22" cy="8" r="1"/>
	<circle cx="28" cy="8" r="1"/>
	<circle cx="31" cy="11" r="1"/>
	<circle cx="34" cy="8" r="1"/>
	<circle cx="40" cy="8" r="1"/>
	<circle cx="43" cy="11" r="1"/>
	<circle cx="16" cy="14" r="1"/>
	<circle cx="19" cy="17" r="1"/>
	<circle cx="25" cy="17" r="1"/>
	<circle cx="22" cy="14" r="1"/>
	<circle cx="16" cy="20" r="1"/>
	<circle cx="19" cy="23" r="1"/>
	<circle cx="25" cy="23" r="1"/>
	<circle cx="37" cy="23" r="1"/>
	<circle cx="22" cy="20" r="1"/>
	<circle cx="28" cy="14" r="1"/>
	<circle cx="31" cy="17" r="1"/>
	<circle cx="37" cy="17" r="1"/>
	<circle cx="34" cy="14" r="1"/>
	<circle cx="28" cy="20" r="1"/>
	<circle cx="31" cy="23" r="1"/>
	<circle cx="34" cy="20" r="1"/>
	<circle cx="40" cy="14" r="1"/>
	<circle cx="43" cy="17" r="1"/>
	<circle cx="40" cy="20" r="1"/>
	<circle cx="43" cy="23" r="1"/>
</g>
<g>
</g>
<g>
</g>
<g>
</g>
<g>
</g>
<g>
</g>
<g>
</g>
<g>
</g>
<g>
</g>
<g>
</g>
<g>
</g>
<g>
</g>
<g>
</g>
<g>
</g>
<g>
</g>
<g>
</g>
</svg>
