<?xml version="1.0" encoding="iso-8859-1"?>
<!-- Generator: Adobe Illustrator 18.0.0, SVG Export Plug-In . SVG Version: 6.00 Build 0)  -->
<!DOCTYPE svg PUBLIC "-//W3C//DTD SVG 1.1//EN" "http://www.w3.org/Graphics/SVG/1.1/DTD/svg11.dtd">
<svg version="1.1" id="Capa_1" xmlns="http://www.w3.org/2000/svg" xmlns:xlink="http://www.w3.org/1999/xlink" x="0px" y="0px"
	 viewBox="0 0 60 60" style="enable-background:new 0 0 60 60;" xml:space="preserve">
<g>
	<circle cx="15" cy="19" r="1"/>
	<circle cx="18" cy="22" r="1"/>
	<circle cx="24" cy="22" r="1"/>
	<circle cx="21" cy="19" r="1"/>
	<circle cx="30" cy="22" r="1"/>
	<circle cx="18" cy="16" r="1"/>
	<circle cx="24" cy="16" r="1"/>
	<circle cx="30" cy="16" r="1"/>
	<circle cx="27" cy="19" r="1"/>
	<circle cx="15" cy="25" r="1"/>
	<circle cx="18" cy="28" r="1"/>
	<circle cx="24" cy="28" r="1"/>
	<circle cx="21" cy="25" r="1"/>
	<circle cx="30" cy="28" r="1"/>
	<circle cx="27" cy="25" r="1"/>
	<circle cx="15" cy="31" r="1"/>
	<circle cx="33" cy="19" r="1"/>
	<circle cx="33" cy="25" r="1"/>
	<circle cx="33" cy="31" r="1"/>
	<circle cx="18" cy="34" r="1"/>
	<circle cx="24" cy="34" r="1"/>
	<circle cx="21" cy="31" r="1"/>
	<circle cx="30" cy="34" r="1"/>
	<circle cx="27" cy="31" r="1"/>
	<path d="M60,8V0h-8v3H8V0H0v8h3v44H0v8h8v-3h44v3h8v-8h-3V8H60z M55,52h-3v3H8v-3H5V8h3V5h44v3h3V52z"/>
	<path d="M36,13H12v24h11v11h24V24H36V13z M18,35h-4v-4v-6v-6v-4h4h6h6h4v4v5v1v6v4h-4h-6h-1H18z"/>
</g>
<g>
</g>
<g>
</g>
<g>
</g>
<g>
</g>
<g>
</g>
<g>
</g>
<g>
</g>
<g>
</g>
<g>
</g>
<g>
</g>
<g>
</g>
<g>
</g>
<g>
</g>
<g>
</g>
<g>
</g>
</svg>
