<?xml version="1.0" encoding="iso-8859-1"?>
<!-- Generator: Adobe Illustrator 18.0.0, SVG Export Plug-In . SVG Version: 6.00 Build 0)  -->
<!DOCTYPE svg PUBLIC "-//W3C//DTD SVG 1.1//EN" "http://www.w3.org/Graphics/SVG/1.1/DTD/svg11.dtd">
<svg version="1.1" id="Capa_1" xmlns="http://www.w3.org/2000/svg" xmlns:xlink="http://www.w3.org/1999/xlink" x="0px" y="0px"
	 viewBox="0 0 51.971 51.971" style="enable-background:new 0 0 51.971 51.971;" xml:space="preserve">
<path d="M45.738,40.144L19.731,9.654C20.546,8.609,20.994,7.343,20.994,6c0-3.309-2.691-6-6-6s-6,2.691-6,6
	c0,2.654,1.761,4.945,4.235,5.705L6.011,50.789c-0.08,0.434,0.133,0.869,0.525,1.07c0.145,0.075,0.302,0.111,0.458,0.111
	c0.265,0,0.526-0.105,0.719-0.305l15.521-16.053l21.468,6.142c0.421,0.118,0.877-0.051,1.116-0.421
	C46.056,40.963,46.024,40.479,45.738,40.144z M10.994,6c0-2.206,1.794-4,4-4s4,1.794,4,4c0,0.75-0.208,1.467-0.598,2.09L16.06,5.351
	c-0.25-0.294-0.648-0.418-1.02-0.316c-0.373,0.1-0.654,0.405-0.725,0.784l-0.721,3.905C12.063,9.153,10.994,7.686,10.994,6z"/>
<g>
</g>
<g>
</g>
<g>
</g>
<g>
</g>
<g>
</g>
<g>
</g>
<g>
</g>
<g>
</g>
<g>
</g>
<g>
</g>
<g>
</g>
<g>
</g>
<g>
</g>
<g>
</g>
<g>
</g>
</svg>
