<?xml version="1.0" encoding="iso-8859-1"?>
<!-- Generator: Adobe Illustrator 18.0.0, SVG Export Plug-In . SVG Version: 6.00 Build 0)  -->
<!DOCTYPE svg PUBLIC "-//W3C//DTD SVG 1.1//EN" "http://www.w3.org/Graphics/SVG/1.1/DTD/svg11.dtd">
<svg version="1.1" id="Capa_1" xmlns="http://www.w3.org/2000/svg" xmlns:xlink="http://www.w3.org/1999/xlink" x="0px" y="0px"
	 viewBox="0 0 60.002 60.002" style="enable-background:new 0 0 60.002 60.002;" xml:space="preserve">
<g>
	<path d="M57.952,5.052c-1.322-1.322-3.08-2.051-4.95-2.051s-3.627,0.729-4.95,2.051l-2.864,2.865L23.821,31.592l7.6,7.6
		l23.703-21.413l2.829-2.829c1.322-1.322,2.05-3.079,2.05-4.949S59.274,6.374,57.952,5.052z"/>
	<polygon points="19.796,36.052 26.963,43.219 29.935,40.534 22.479,33.079 	"/>
	<path d="M13.47,43.06c-0.279-0.035-0.562-0.059-0.853-0.059h-0.415c-2.162,0-6.186,0-6.186,4.917c0,4.942-5.166,7.065-5.384,7.153
		c-0.447,0.176-0.705,0.645-0.615,1.116S0.52,57.001,1,57.001h12.437c1.807,0,3.196-0.481,4.13-1.431
		c1.391-1.415,1.467-3.467,1.446-5.221c0.059-0.034,0.121-0.059,0.174-0.106l6.29-5.682l-7.023-7.023L13.47,43.06z"/>
</g>
<g>
</g>
<g>
</g>
<g>
</g>
<g>
</g>
<g>
</g>
<g>
</g>
<g>
</g>
<g>
</g>
<g>
</g>
<g>
</g>
<g>
</g>
<g>
</g>
<g>
</g>
<g>
</g>
<g>
</g>
</svg>
