<?xml version="1.0" encoding="iso-8859-1"?>
<!-- Generator: Adobe Illustrator 18.0.0, SVG Export Plug-In . SVG Version: 6.00 Build 0)  -->
<!DOCTYPE svg PUBLIC "-//W3C//DTD SVG 1.1//EN" "http://www.w3.org/Graphics/SVG/1.1/DTD/svg11.dtd">
<svg version="1.1" id="Capa_1" xmlns="http://www.w3.org/2000/svg" xmlns:xlink="http://www.w3.org/1999/xlink" x="0px" y="0px"
	 viewBox="0 0 59.975 59.975" style="enable-background:new 0 0 59.975 59.975;" xml:space="preserve">
<g>
	<path d="M59.672,5.95l-5.657-5.657c-0.391-0.391-1.023-0.391-1.414,0l-3,3h0c-0.375-0.375-1.039-0.375-1.414,0l-2.828,2.828
		l-1.414-1.414c-0.391-0.391-1.023-0.391-1.414,0l-9.899,9.899c-0.391,0.391-0.391,1.023,0,1.414
		c0.195,0.195,0.451,0.293,0.707,0.293s0.512-0.098,0.707-0.293l9.192-9.192l0.707,0.707l-8.092,8.092l8.485,8.485l12.334-12.334
		c0.188-0.188,0.293-0.441,0.293-0.707s-0.105-0.52-0.293-0.707l3-3C60.063,6.974,60.063,6.341,59.672,5.95z"/>
	<path d="M32.631,18.849l3.536,3.536c0.391,0.391,0.391,1.023,0,1.414c-0.195,0.195-0.451,0.293-0.707,0.293
		s-0.512-0.098-0.707-0.293l-3.536-3.536l-1.812,1.812l2.828,2.829c0.391,0.391,0.391,1.023,0,1.414
		c-0.195,0.195-0.451,0.293-0.707,0.293s-0.512-0.098-0.707-0.293l-2.828-2.829L14.227,37.254c-0.391,0.391-0.391,1.023,0,1.414
		L12.194,40.7c-0.808-0.533-1.753-0.821-2.744-0.821c-1.336,0-2.591,0.52-3.536,1.464c-0.188,0.188-0.293,0.441-0.293,0.707
		s0.105,0.52,0.293,0.707c0.78,0.78,0.78,2.049,0,2.829c-0.756,0.756-2.073,0.756-2.829,0c-0.272-0.271-0.673-0.364-1.038-0.236
		c-0.363,0.127-0.621,0.451-0.663,0.833L0.01,58.569l5.095-5.092C5.023,53.33,4.965,53.172,4.965,53v-2
		c0-0.266,0.105-0.52,0.293-0.707l1-1C6.446,49.105,6.7,49,6.965,49h2c0.265,0,0.52,0.105,0.707,0.293l1,1
		c0.188,0.188,0.293,0.441,0.293,0.707v2c0,0.266-0.105,0.52-0.293,0.707l-1,1C9.485,54.895,9.231,55,8.965,55h-2
		c-0.156,0-0.303-0.046-0.44-0.115l-5.093,5.09l12.372-1.375c0.382-0.043,0.706-0.301,0.833-0.663
		c0.127-0.362,0.035-0.767-0.237-1.038c-0.378-0.378-0.586-0.88-0.586-1.414s0.208-1.036,0.586-1.414
		c0.756-0.756,2.073-0.756,2.829,0c0.375,0.375,1.039,0.375,1.414,0c1.711-1.711,1.918-4.363,0.626-6.304l2.028-2.028l0,0
		c0.188,0.188,0.442,0.293,0.707,0.293s0.52-0.105,0.707-0.293l20.212-20.212l-8.485-8.485L32.631,18.849z"/>
</g>
<g>
</g>
<g>
</g>
<g>
</g>
<g>
</g>
<g>
</g>
<g>
</g>
<g>
</g>
<g>
</g>
<g>
</g>
<g>
</g>
<g>
</g>
<g>
</g>
<g>
</g>
<g>
</g>
<g>
</g>
</svg>
