<?xml version="1.0" encoding="iso-8859-1"?>
<!-- Generator: Adobe Illustrator 18.0.0, SVG Export Plug-In . SVG Version: 6.00 Build 0)  -->
<!DOCTYPE svg PUBLIC "-//W3C//DTD SVG 1.1//EN" "http://www.w3.org/Graphics/SVG/1.1/DTD/svg11.dtd">
<svg version="1.1" id="Capa_1" xmlns="http://www.w3.org/2000/svg" xmlns:xlink="http://www.w3.org/1999/xlink" x="0px" y="0px"
	 viewBox="0 0 60 60" style="enable-background:new 0 0 60 60;" xml:space="preserve">
<g>
	<path d="M30,0C13.458,0,0,13.458,0,30s13.458,30,30,30c7.289,0,11.283-1.173,12.57-3.69c1.526-2.983-1.185-6.738-3.806-10.369
		c-2.134-2.955-4.34-6.012-3.075-7.217c1.639-1.56,4.94-1.771,7.955-1.771c0.882,0,1.781,0.019,2.68,0.037
		c0.91,0.019,1.819,0.037,2.71,0.037c3.832,0,10.966,0,10.966-7.027C60,13.458,46.542,0,30,0z M30,4c2.757,0,5,2.243,5,5
		s-2.243,5-5,5s-5-2.243-5-5S27.243,4,30,4z M4,30c0-2.757,2.243-5,5-5s5,2.243,5,5s-2.243,5-5,5S4,32.757,4,30z M18.687,48.385
		c-0.944,0.944-2.2,1.465-3.535,1.465c-1.336,0-2.592-0.521-3.536-1.465c-1.949-1.949-1.949-5.122,0-7.071
		c0.944-0.944,2.2-1.464,3.536-1.464c1.335,0,2.591,0.52,3.535,1.464C20.635,43.263,20.635,46.436,18.687,48.385z M18.687,18.687
		c-0.944,0.944-2.2,1.464-3.535,1.464c-1.336,0-2.592-0.52-3.536-1.464c-1.949-1.949-1.949-5.122,0-7.071
		c0.944-0.944,2.2-1.465,3.536-1.465c1.335,0,2.591,0.521,3.535,1.465C20.635,13.564,20.635,16.737,18.687,18.687z M30,56
		c-2.757,0-5-2.243-5-5s2.243-5,5-5s5,2.243,5,5S32.757,56,30,56z M36.099,33.064c-0.378,0.586-1.019,0.938-1.712,0.943
		c-2.246,0.014-3.396,0.354-3.696,0.642c-1.051,1.001-0.993,2.286-0.76,3.188c0.161,0.628,0.03,1.278-0.36,1.782
		c-0.389,0.501-0.997,0.801-1.628,0.801c-0.297,0-0.589-0.063-0.866-0.189c-2.782-1.259-4.398-4.146-4.021-7.183
		c0.372-3.012,2.815-5.522,5.812-5.97c3.089-0.454,6.132,1.218,7.386,4.043C36.533,31.753,36.476,32.48,36.099,33.064z M43,20.15
		c-1.336,0-2.591-0.52-3.535-1.464c-1.949-1.949-1.949-5.122,0-7.071c0.943-0.944,2.199-1.465,3.535-1.465s2.592,0.521,3.535,1.465
		c1.949,1.949,1.949,5.122,0,7.071C45.591,19.631,44.336,20.15,43,20.15z M51,33c-2.757,0-5-2.243-5-5s2.243-5,5-5s5,2.243,5,5
		S53.757,33,51,33z"/>
</g>
<g>
</g>
<g>
</g>
<g>
</g>
<g>
</g>
<g>
</g>
<g>
</g>
<g>
</g>
<g>
</g>
<g>
</g>
<g>
</g>
<g>
</g>
<g>
</g>
<g>
</g>
<g>
</g>
<g>
</g>
</svg>
