<?xml version="1.0" encoding="iso-8859-1"?>
<!-- Generator: Adobe Illustrator 18.0.0, SVG Export Plug-In . SVG Version: 6.00 Build 0)  -->
<!DOCTYPE svg PUBLIC "-//W3C//DTD SVG 1.1//EN" "http://www.w3.org/Graphics/SVG/1.1/DTD/svg11.dtd">
<svg version="1.1" id="Capa_1" xmlns="http://www.w3.org/2000/svg" xmlns:xlink="http://www.w3.org/1999/xlink" x="0px" y="0px"
	 viewBox="0 0 59.999 59.999" style="enable-background:new 0 0 59.999 59.999;" xml:space="preserve">
<g>
	<path d="M48.5,6.999h-1c-0.553,0-1,0.447-1,1s0.447,1,1,1h1c0.553,0,1-0.447,1-1S49.052,6.999,48.5,6.999z"/>
	<path d="M31.5,8.999h1c0.552,0,1-0.447,1-1s-0.448-1-1-1h-1c-0.552,0-1,0.447-1,1S30.947,8.999,31.5,8.999z"/>
	<path d="M44.5,6.999h-1c-0.553,0-1,0.447-1,1s0.447,1,1,1h1c0.553,0,1-0.447,1-1S45.052,6.999,44.5,6.999z"/>
	<path d="M36.5,6.999h-1c-0.552,0-1,0.447-1,1s0.448,1,1,1h1c0.552,0,1-0.447,1-1S37.052,6.999,36.5,6.999z"/>
	<path d="M40.5,6.999h-1c-0.552,0-1,0.447-1,1s0.448,1,1,1h1c0.552,0,1-0.447,1-1S41.052,6.999,40.5,6.999z"/>
	<path d="M31.5,5.999c0.104,0,0.211-0.017,0.316-0.052l0.949-0.316c0.524-0.175,0.807-0.74,0.632-1.265
		c-0.174-0.523-0.74-0.809-1.265-0.632l-0.949,0.316c-0.524,0.175-0.807,0.74-0.632,1.265C30.691,5.735,31.081,5.999,31.5,5.999z"/>
	<path d="M39.089,3.469c0.104,0,0.211-0.017,0.315-0.051l0.949-0.315c0.524-0.175,0.808-0.74,0.633-1.265
		c-0.174-0.524-0.742-0.805-1.264-0.634L38.774,1.52c-0.524,0.175-0.808,0.74-0.633,1.265C38.279,3.204,38.67,3.469,39.089,3.469z"
		/>
	<path d="M35.295,4.735c0.105,0,0.211-0.017,0.316-0.052l0.949-0.316c0.524-0.175,0.807-0.74,0.632-1.265
		c-0.174-0.523-0.738-0.809-1.265-0.632l-0.949,0.316c-0.524,0.175-0.807,0.74-0.632,1.265C34.485,4.47,34.876,4.735,35.295,4.735z"
		/>
	<path d="M42.883,2.204c0.104,0,0.211-0.017,0.315-0.051l0.616-0.205c0.524-0.175,0.808-0.741,0.634-1.265
		c-0.175-0.524-0.74-0.805-1.265-0.634l-0.616,0.205C42.044,0.43,41.76,0.996,41.934,1.52C42.074,1.94,42.464,2.204,42.883,2.204z"
		/>
	<path d="M32.765,10.367l-0.949-0.316c-0.525-0.176-1.09,0.108-1.265,0.632c-0.175,0.524,0.108,1.09,0.632,1.265l0.949,0.316
		c0.105,0.035,0.211,0.052,0.316,0.052c0.419,0,0.809-0.265,0.949-0.684C33.572,11.108,33.289,10.542,32.765,10.367z"/>
	<path d="M43.815,14.05l-0.616-0.205c-0.522-0.171-1.091,0.109-1.265,0.634c-0.174,0.523,0.109,1.09,0.634,1.265l0.616,0.205
		c0.104,0.034,0.211,0.051,0.315,0.051c0.419,0,0.81-0.265,0.949-0.685C44.623,14.791,44.339,14.225,43.815,14.05z"/>
	<path d="M40.353,12.896l-0.949-0.315c-0.524-0.171-1.09,0.109-1.264,0.634s0.109,1.09,0.633,1.265l0.949,0.315
		c0.104,0.034,0.211,0.051,0.315,0.051c0.419,0,0.81-0.265,0.949-0.685C41.161,13.636,40.877,13.071,40.353,12.896z"/>
	<path d="M34.978,13.212l0.949,0.316c0.105,0.035,0.211,0.052,0.316,0.052c0.419,0,0.809-0.265,0.949-0.684
		c0.175-0.524-0.108-1.09-0.632-1.265l-0.949-0.316c-0.523-0.176-1.09,0.107-1.265,0.632S34.454,13.037,34.978,13.212z"/>
	<path d="M37.5,22.999h-1.056c-0.508-5.597-5.216-10-10.944-10v-1h2c0.552,0,1-0.447,1-1v-2h-3c-0.552,0-1-0.447-1-1s0.448-1,1-1h3
		v-2c0-0.553-0.448-1-1-1h-6c-0.552,0-1,0.447-1,1v6c0,0.553,0.448,1,1,1h2v1c-5.728,0-10.442,4.402-10.949,10H11.5
		c-0.552,0-1,0.447-1,1v35c0,0.553,0.448,1,1,1h26c0.552,0,1-0.447,1-1v-7h-17c-0.552,0-1-0.447-1-1v-19c0-0.553,0.448-1,1-1h17v-7
		C38.5,23.447,38.052,22.999,37.5,22.999z"/>
	<rect x="22.5" y="32.999" width="16" height="17"/>
</g>
<g>
</g>
<g>
</g>
<g>
</g>
<g>
</g>
<g>
</g>
<g>
</g>
<g>
</g>
<g>
</g>
<g>
</g>
<g>
</g>
<g>
</g>
<g>
</g>
<g>
</g>
<g>
</g>
<g>
</g>
</svg>
