<?xml version="1.0" encoding="iso-8859-1"?>
<!-- Generator: Adobe Illustrator 18.0.0, SVG Export Plug-In . SVG Version: 6.00 Build 0)  -->
<!DOCTYPE svg PUBLIC "-//W3C//DTD SVG 1.1//EN" "http://www.w3.org/Graphics/SVG/1.1/DTD/svg11.dtd">
<svg version="1.1" id="Capa_1" xmlns="http://www.w3.org/2000/svg" xmlns:xlink="http://www.w3.org/1999/xlink" x="0px" y="0px"
	 viewBox="0 0 60 60" style="enable-background:new 0 0 60 60;" xml:space="preserve">
<g>
	<path d="M11.583,21.76c-0.504,0.47-0.996,0.966-1.463,1.474c-0.374,0.406-0.347,1.039,0.06,1.413
		c0.192,0.176,0.435,0.264,0.676,0.264c0.27,0,0.54-0.109,0.737-0.323c0.432-0.47,0.888-0.929,1.354-1.364
		c0.404-0.377,0.426-1.01,0.049-1.414C12.62,21.406,11.988,21.384,11.583,21.76z"/>
	<path d="M7.555,26.492c-0.384,0.572-0.75,1.167-1.089,1.768c-0.271,0.481-0.102,1.091,0.38,1.362
		c0.155,0.087,0.324,0.129,0.49,0.129c0.349,0,0.688-0.183,0.872-0.509c0.313-0.556,0.653-1.106,1.008-1.636
		c0.308-0.459,0.185-1.08-0.273-1.388C8.482,25.91,7.862,26.033,7.555,26.492z"/>
	<path d="M4.742,35.227c0.093,0.027,0.186,0.04,0.278,0.04c0.434,0,0.833-0.285,0.96-0.723c0.178-0.615,0.381-1.229,0.605-1.824
		C6.779,32.204,6.518,31.627,6,31.433c-0.515-0.192-1.094,0.067-1.288,0.584c-0.242,0.644-0.462,1.307-0.654,1.971
		C3.905,34.519,4.211,35.074,4.742,35.227z"/>
	<path d="M44.592,18.785c-0.464-0.299-1.083-0.165-1.382,0.299c-0.299,0.464-0.165,1.083,0.299,1.382
		c0.539,0.347,1.069,0.718,1.577,1.102c0.181,0.137,0.393,0.203,0.603,0.203c0.303,0,0.602-0.137,0.798-0.396
		c0.333-0.44,0.247-1.067-0.194-1.401C45.746,19.559,45.173,19.159,44.592,18.785z"/>
	<path d="M5.032,40.22c0.033-0.641,0.09-1.285,0.17-1.916c0.069-0.548-0.318-1.048-0.866-1.118
		c-0.537-0.071-1.048,0.318-1.118,0.866c-0.086,0.68-0.148,1.375-0.183,2.066C3.028,40.253,3.05,40.381,3.092,40.5H0v8h8v-8H4.962
		C4.994,40.41,5.027,40.32,5.032,40.22z"/>
	<path d="M56.921,39.427c-0.042-0.551-0.516-0.96-1.073-0.921c-0.551,0.042-0.963,0.522-0.921,1.073
		c0.023,0.303,0.023,0.613,0.035,0.921H52v8h8v-8h-3.038C56.949,40.141,56.948,39.781,56.921,39.427z"/>
	<path d="M16.585,18.069c-0.597,0.342-1.189,0.712-1.761,1.102c-0.457,0.311-0.575,0.933-0.264,1.389
		c0.193,0.285,0.508,0.438,0.828,0.438c0.194,0,0.39-0.056,0.562-0.173c0.529-0.36,1.078-0.703,1.63-1.02
		c0.479-0.274,0.645-0.886,0.371-1.365C17.676,17.96,17.065,17.795,16.585,18.069z"/>
	<path d="M40.941,16.816c-0.258-0.115-0.529-0.209-0.793-0.316h11.994c0.447,1.72,2,3,3.858,3c2.206,0,4-1.794,4-4s-1.794-4-4-4
		c-1.858,0-3.411,1.28-3.858,3H34v-3h-8v3H7.858c-0.447-1.72-2-3-3.858-3c-2.206,0-4,1.794-4,4s1.794,4,4,4
		c1.858,0,3.411-1.28,3.858-3h12.143c-0.282,0.27-0.391,0.693-0.242,1.08c0.152,0.398,0.532,0.643,0.934,0.643
		c0.119,0,0.24-0.021,0.358-0.067c0.597-0.229,1.209-0.437,1.82-0.618c0.461-0.136,0.729-0.577,0.693-1.038h2.315
		c0.043,0.035,0.074,0.084,0.122,0.111v0.555V19.5h3.667h2H34v-2.667c0.213,0.034,0.427,0.064,0.638,0.104
		c0.063,0.012,0.125,0.017,0.186,0.017c0.339,0,0.647-0.178,0.829-0.454h2.179c-0.031,0.053-0.073,0.096-0.094,0.156
		c-0.185,0.521,0.087,1.092,0.608,1.277c0.604,0.214,1.204,0.454,1.785,0.711c0.132,0.059,0.27,0.086,0.405,0.086
		c0.383,0,0.75-0.222,0.915-0.595C41.674,17.63,41.446,17.04,40.941,16.816z"/>
	<path d="M53.287,30.923c0.15,0,0.302-0.034,0.445-0.105c0.494-0.247,0.695-0.847,0.449-1.341c-0.31-0.62-0.646-1.233-0.999-1.822
		c-0.284-0.473-0.898-0.628-1.372-0.343c-0.474,0.284-0.627,0.898-0.343,1.372c0.326,0.544,0.637,1.112,0.923,1.686
		C52.566,30.72,52.919,30.923,53.287,30.923z"/>
	<path d="M54.483,32.674c-0.526,0.167-0.817,0.729-0.65,1.256c0.193,0.608,0.365,1.231,0.51,1.853
		c0.108,0.461,0.519,0.772,0.973,0.772c0.076,0,0.152-0.008,0.229-0.026c0.538-0.126,0.872-0.664,0.746-1.202
		c-0.157-0.671-0.343-1.345-0.551-2.002C55.571,32.798,55.01,32.508,54.483,32.674z"/>
	<path d="M49.397,22.724c-0.384-0.397-1.018-0.407-1.414-0.022c-0.397,0.384-0.407,1.017-0.022,1.414
		c0.442,0.457,0.874,0.938,1.284,1.432c0.198,0.238,0.482,0.361,0.77,0.361c0.225,0,0.452-0.076,0.639-0.231
		c0.425-0.353,0.483-0.983,0.13-1.408C50.342,23.737,49.875,23.217,49.397,22.724z"/>
</g>
<g>
</g>
<g>
</g>
<g>
</g>
<g>
</g>
<g>
</g>
<g>
</g>
<g>
</g>
<g>
</g>
<g>
</g>
<g>
</g>
<g>
</g>
<g>
</g>
<g>
</g>
<g>
</g>
<g>
</g>
</svg>
