<?xml version="1.0" encoding="iso-8859-1"?>
<!-- Generator: Adobe Illustrator 18.0.0, SVG Export Plug-In . SVG Version: 6.00 Build 0)  -->
<!DOCTYPE svg PUBLIC "-//W3C//DTD SVG 1.1//EN" "http://www.w3.org/Graphics/SVG/1.1/DTD/svg11.dtd">
<svg version="1.1" id="Capa_1" xmlns="http://www.w3.org/2000/svg" xmlns:xlink="http://www.w3.org/1999/xlink" x="0px" y="0px"
	 viewBox="0 0 59 59" style="enable-background:new 0 0 59 59;" xml:space="preserve">
<path d="M53.715,43.072l-9.341-24.288C46.46,18.183,48,16.277,48,14c0-2.757-2.243-5-5-5c-2.021,0-3.757,1.212-4.544,2.942
	L14.989,5.104C14.99,5.069,15,5.036,15,5c0-2.757-2.243-5-5-5S5,2.243,5,5c0,2.382,1.677,4.372,3.91,4.872l-3.827,39.22
	C2.764,49.525,1,51.557,1,54c0,2.757,2.243,5,5,5c2.738,0,4.965-2.214,4.995-4.946l37.39-4.138C49.138,51.724,50.922,53,53,53
	c2.757,0,5-2.243,5-5C58,45.488,56.131,43.423,53.715,43.072z M10.916,9.914c0.015-0.003,0.029-0.008,0.044-0.011
	c0.057-0.011,0.112-0.029,0.168-0.042c0.229-0.054,0.452-0.124,0.669-0.208c0.073-0.028,0.147-0.053,0.219-0.084
	c0.233-0.104,0.456-0.227,0.67-0.364c0.08-0.051,0.155-0.105,0.232-0.161c0.184-0.133,0.361-0.277,0.525-0.434
	C13.5,8.555,13.554,8.5,13.608,8.444c0.161-0.168,0.309-0.35,0.446-0.54c0.048-0.067,0.096-0.133,0.141-0.203
	c0.133-0.205,0.256-0.416,0.358-0.641l23.448,6.832C38,13.929,38,13.964,38,14c0,0.331,0.036,0.653,0.098,0.966
	c0.02,0.104,0.059,0.2,0.085,0.302c0.054,0.204,0.109,0.408,0.187,0.601c0.046,0.114,0.107,0.218,0.161,0.328
	c0.083,0.169,0.167,0.337,0.269,0.495c0.069,0.108,0.149,0.207,0.226,0.309c0.109,0.144,0.219,0.284,0.343,0.415
	c0.09,0.095,0.185,0.183,0.282,0.271c0.131,0.119,0.265,0.232,0.408,0.337c0.107,0.079,0.217,0.151,0.33,0.221
	c0.151,0.093,0.305,0.176,0.466,0.253c0.121,0.058,0.242,0.113,0.368,0.161c0.168,0.064,0.34,0.115,0.516,0.161
	c0.131,0.035,0.26,0.07,0.396,0.094c0.054,0.01,0.105,0.03,0.159,0.038l9.325,24.244c-0.125,0.036-0.242,0.092-0.363,0.137
	c-0.094,0.035-0.189,0.065-0.28,0.106c-0.24,0.107-0.47,0.232-0.689,0.374c-0.029,0.019-0.062,0.032-0.09,0.052
	c-0.245,0.166-0.471,0.357-0.682,0.563c-0.062,0.061-0.115,0.129-0.174,0.192c-0.143,0.154-0.278,0.314-0.4,0.485
	c-0.061,0.086-0.116,0.174-0.172,0.263c-0.105,0.167-0.198,0.34-0.283,0.52c-0.045,0.096-0.09,0.19-0.129,0.289
	c-0.079,0.201-0.141,0.41-0.194,0.623c-0.021,0.084-0.049,0.165-0.066,0.251c-0.056,0.291-0.092,0.59-0.096,0.896l-37.385,4.138
	c0-0.001-0.001-0.002-0.001-0.003c-0.016-0.039-0.038-0.074-0.055-0.112c-0.1-0.223-0.217-0.435-0.347-0.639
	c-0.043-0.068-0.084-0.135-0.13-0.2c-0.149-0.211-0.312-0.41-0.491-0.594c-0.06-0.062-0.124-0.117-0.187-0.176
	c-0.151-0.141-0.31-0.273-0.478-0.395c-0.063-0.046-0.122-0.096-0.188-0.14c-0.213-0.14-0.439-0.258-0.671-0.365
	c-0.082-0.038-0.164-0.073-0.249-0.106c-0.236-0.094-0.478-0.176-0.729-0.233L10.916,9.914z"/>
<g>
</g>
<g>
</g>
<g>
</g>
<g>
</g>
<g>
</g>
<g>
</g>
<g>
</g>
<g>
</g>
<g>
</g>
<g>
</g>
<g>
</g>
<g>
</g>
<g>
</g>
<g>
</g>
<g>
</g>
</svg>
